<svg width="272" height="839" viewBox="0 0 272 839" fill="none" xmlns="http://www.w3.org/2000/svg">
<rect width="272" height="839" fill="white"/>
<rect x="70" y="733" width="121" height="29" fill="black"/>
<path d="M109.5 741.768C110.717 741.768 111.756 741.979 112.615 742.402V745.391L112.596 745.41C112.231 744.85 111.463 744.479 110.291 744.297C109.946 744.238 109.51 744.209 108.982 744.209C108.455 744.209 107.938 744.31 107.43 744.512C106.922 744.707 106.505 744.987 106.18 745.352C105.548 746.061 105.232 747.074 105.232 748.389C105.232 749.919 105.633 751.058 106.434 751.807C107.098 752.432 107.977 752.744 109.07 752.744C110.307 752.744 111.31 752.48 112.078 751.953C112.358 751.764 112.596 751.53 112.791 751.25L112.82 751.27V754.004C111.824 754.831 110.483 755.244 108.797 755.244C106.811 755.244 105.255 754.613 104.129 753.35C103.048 752.145 102.508 750.55 102.508 748.564C102.508 746.462 103.1 744.805 104.285 743.594C105.483 742.376 107.221 741.768 109.5 741.768ZM116.346 753.457C115.753 752.891 115.285 752.21 114.939 751.416C114.601 750.622 114.432 749.753 114.432 748.809C114.432 747.858 114.591 746.96 114.91 746.113C115.229 745.267 115.685 744.521 116.277 743.877C116.87 743.232 117.586 742.721 118.426 742.344C119.266 741.96 120.206 741.768 121.248 741.768C123.045 741.768 124.559 742.334 125.789 743.467C127.104 744.678 127.762 746.312 127.762 748.369C127.762 750.361 127.085 752.018 125.73 753.34C124.897 754.154 123.904 754.714 122.752 755.02C122.186 755.169 121.521 755.244 120.76 755.244C120.005 755.244 119.227 755.088 118.426 754.775C117.632 754.463 116.938 754.023 116.346 753.457ZM117.146 748.672C117.146 749.277 117.247 749.834 117.449 750.342C117.651 750.85 117.931 751.286 118.289 751.65C119.051 752.419 120.031 752.803 121.229 752.803C122.368 752.803 123.283 752.435 123.973 751.699C124.676 750.938 125.027 749.899 125.027 748.584C125.027 747.347 124.692 746.315 124.021 745.488C123.299 744.603 122.309 744.16 121.053 744.16C119.835 744.16 118.868 744.609 118.152 745.508C117.482 746.348 117.146 747.402 117.146 748.672ZM136.814 752.656C137.218 752.656 137.498 752.617 137.654 752.539L137.693 752.549L137.596 755H130.281V741.943C130.457 741.956 130.652 741.966 130.867 741.973L131.551 741.992C132.007 742.005 132.501 742.012 133.035 742.012C134.526 742.012 136.001 741.986 137.459 741.934C137.387 742.507 137.352 743.271 137.352 744.229C137.352 744.333 137.358 744.411 137.371 744.463L137.352 744.492C137.013 744.395 136.531 744.346 135.906 744.346H132.83V746.836H135.145C135.861 746.836 136.29 746.816 136.434 746.777L136.463 749.189C136.15 749.157 135.747 749.141 135.252 749.141H132.83V752.656H136.814ZM146.229 742.959C146.365 742.673 146.434 742.461 146.434 742.324C146.434 742.181 146.421 742.077 146.395 742.012H149.91C149.839 742.09 149.747 742.184 149.637 742.295C149.526 742.399 149.402 742.526 149.266 742.676C148.94 743.04 148.641 743.464 148.367 743.945L146.014 748.242L148.211 752.373L148.475 752.91C148.969 753.939 149.389 754.635 149.734 755H146.551C146.525 754.772 146.414 754.466 146.219 754.082L144.305 750.41C142.957 753.138 142.267 754.544 142.234 754.629C142.202 754.74 142.176 754.863 142.156 755H138.973C139.214 754.753 139.461 754.404 139.715 753.955L140.887 751.875L142.967 748.35L140.232 743.203C139.939 742.65 139.682 742.253 139.461 742.012H142.742C142.716 742.077 142.703 742.148 142.703 742.227C142.703 742.402 142.785 742.646 142.947 742.959L144.578 746.221L146.229 742.959Z" fill="white"/>
<path d="M92.75 791.391C91.0625 791.391 89.474 791.255 87.9844 790.984V770.078C89.3594 769.911 90.9531 769.828 92.7656 769.828C94.5885 769.828 96.2344 770.078 97.7031 770.578C99.1823 771.068 100.417 771.771 101.406 772.688C103.406 774.521 104.406 777.089 104.406 780.391C104.406 784.089 103.292 786.896 101.062 788.812C99.0625 790.531 96.2917 791.391 92.75 791.391ZM92.0469 787.578C92.724 787.703 93.401 787.766 94.0781 787.766C94.7552 787.766 95.4844 787.635 96.2656 787.375C97.0469 787.104 97.724 786.688 98.2969 786.125C99.526 784.938 100.141 783.208 100.141 780.938C100.141 777.208 98.7812 774.917 96.0625 774.062C95.1667 773.781 94.1302 773.641 92.9531 773.641H92.5312C92.375 773.641 92.2135 773.646 92.0469 773.656V787.578ZM126.125 778.469C125.927 778.823 125.828 779.672 125.828 781.016V785.859C125.828 787.328 125.068 788.604 123.547 789.688C121.974 790.823 120.047 791.391 117.766 791.391C114.599 791.391 112.073 790.396 110.188 788.406C108.365 786.51 107.453 784.094 107.453 781.156C107.453 778.031 108.38 775.427 110.234 773.344C112.307 771 115.161 769.828 118.797 769.828C121.224 769.828 123.146 770.297 124.562 771.234L124.312 775.844L124.188 775.875C123.823 775.24 123.104 774.719 122.031 774.312C121.01 773.927 119.938 773.734 118.812 773.734C117.698 773.734 116.719 773.911 115.875 774.266C115.042 774.62 114.333 775.125 113.75 775.781C112.521 777.125 111.906 778.901 111.906 781.109C111.906 783.036 112.448 784.583 113.531 785.75C114.615 786.906 116.01 787.484 117.719 787.484C119.604 787.484 120.875 786.995 121.531 786.016C121.74 785.703 121.844 785.349 121.844 784.953V782.359H119.828C118.745 782.359 118.156 782.453 118.062 782.641L118.016 782.625L117.875 778.547C118.167 778.63 119.349 778.672 121.422 778.672H123.266C124.411 778.672 125.349 778.594 126.078 778.438L126.125 778.469ZM142.859 771.375L142.562 775.969L142.453 776C141.682 774.844 140.37 774.094 138.516 773.75C137.932 773.635 137.37 773.578 136.828 773.578C136.297 773.578 135.839 773.625 135.453 773.719C135.078 773.812 134.755 773.948 134.484 774.125C133.911 774.5 133.625 774.99 133.625 775.594C133.625 776.385 133.875 776.979 134.375 777.375C135 777.854 136.036 778.193 137.484 778.391C138.932 778.578 140.094 778.839 140.969 779.172C141.844 779.505 142.562 779.927 143.125 780.438C144.188 781.396 144.719 782.75 144.719 784.5C144.719 786.792 143.854 788.557 142.125 789.797C140.646 790.859 138.781 791.391 136.531 791.391C134.719 791.391 132.927 791.047 131.156 790.359C130.573 790.13 130.062 789.865 129.625 789.562L129.797 784.344L129.859 784.297C131.151 786.526 133.271 787.641 136.219 787.641C138.312 787.641 139.698 787.135 140.375 786.125C140.604 785.781 140.719 785.401 140.719 784.984C140.719 784.557 140.651 784.208 140.516 783.938C140.38 783.656 140.156 783.417 139.844 783.219C139.24 782.823 138.224 782.557 136.797 782.422C135.37 782.286 134.203 782.031 133.297 781.656C132.391 781.281 131.667 780.818 131.125 780.266C130.146 779.266 129.656 777.87 129.656 776.078C129.656 774.224 130.307 772.724 131.609 771.578C132.932 770.411 134.714 769.828 136.953 769.828C139.203 769.828 141.172 770.344 142.859 771.375ZM156.406 791.062C156.094 791.021 155.562 791 154.812 791H153C152.646 791 152.354 791.01 152.125 791.031L152.109 791C152.151 790.927 152.172 790.844 152.172 790.75C152.172 790.656 152.161 790.557 152.141 790.453C152.13 790.349 152.089 790.161 152.016 789.891C151.953 789.62 151.854 789.229 151.719 788.719L146.406 770.156C147.073 770.198 147.88 770.219 148.828 770.219C149.776 770.219 150.391 770.177 150.672 770.094L154.359 784.234L157.953 770.156C158.109 770.167 158.25 770.177 158.375 770.188H158.719C159.062 770.208 159.495 770.219 160.016 770.219C160.536 770.219 161.073 770.177 161.625 770.094L165.281 784.234L168.422 770.156C169.047 770.198 169.865 770.219 170.875 770.219C171.885 770.219 172.5 770.177 172.719 770.094L168.219 786.578C167.646 788.474 167.344 789.599 167.312 789.953C167.281 790.307 167.266 790.552 167.266 790.688C167.266 790.823 167.286 790.932 167.328 791.016L167.297 791.062C166.964 791.021 166.438 791 165.719 791C165.094 791 164.526 791 164.016 791C163.505 791 163.135 791.01 162.906 791.031L162.891 791C162.932 790.927 162.953 790.844 162.953 790.75C162.953 790.656 162.948 790.562 162.938 790.469C162.927 790.375 162.896 790.198 162.844 789.938C162.802 789.667 162.729 789.271 162.625 788.75L162.203 786.625L159.641 776.891L157.203 786.578C156.703 788.568 156.443 789.714 156.422 790.016C156.38 790.589 156.385 790.922 156.438 791.016L156.406 791.062Z" fill="black"/>
</svg>
