<svg width="272" height="839" viewBox="0 0 272 839" fill="none" xmlns="http://www.w3.org/2000/svg">
<rect width="272" height="839" fill="#7B5BBE"/>
<rect x="70" y="733" width="121" height="29" fill="#5F00A9"/>
<path d="M98.1699 755.059C97.7207 755.02 97.1478 755 96.4512 755H95.6797V741.973L96.0703 741.992C96.3438 742.005 96.5488 742.012 96.6855 742.012H96.9688C97.5417 742.012 97.9421 741.986 98.1699 741.934V747.451L102.125 741.973C102.542 741.999 102.893 742.012 103.18 742.012H103.717C104.387 742.012 104.866 741.986 105.152 741.934L101.383 746.855L105.094 754.219C105.25 754.577 105.396 754.837 105.533 755H104.938C103.564 755 102.708 755.026 102.369 755.078C102.298 754.642 102.2 754.261 102.076 753.936L99.5859 749.189L98.1699 751.045V755.059ZM114.742 741.963C115.146 741.995 115.481 742.012 115.748 742.012H116.559C116.832 742.012 117.118 741.986 117.418 741.934V750.01C117.418 751.611 116.933 752.897 115.963 753.867C115.045 754.785 113.893 755.244 112.506 755.244C110.989 755.244 109.762 754.85 108.824 754.062C107.776 753.177 107.252 751.901 107.252 750.234V741.963C107.792 741.995 108.3 742.012 108.775 742.012C109.257 742.012 109.654 741.986 109.967 741.934V750.361C109.967 751.182 110.217 751.82 110.719 752.275C111.188 752.692 111.773 752.9 112.477 752.9C113.518 752.9 114.212 752.367 114.557 751.299C114.68 750.915 114.742 750.439 114.742 749.873V741.963ZM124.898 749.951C124.703 749.964 124.495 749.971 124.273 749.971C124.052 749.971 123.723 749.954 123.287 749.922V755H120.699V741.943C121.611 741.826 122.73 741.768 124.059 741.768C125.868 741.768 127.216 742.103 128.102 742.773C128.993 743.438 129.439 744.466 129.439 745.859C129.439 746.94 129.033 747.865 128.219 748.633C127.952 748.88 127.646 749.095 127.301 749.277L129.293 753.477C129.684 754.342 129.983 754.857 130.191 755.02L130.143 755.068C129.511 754.964 128.518 754.967 127.164 755.078L124.898 749.951ZM124.244 744.072C123.912 744.072 123.593 744.089 123.287 744.121V747.852C123.606 747.897 123.98 747.92 124.41 747.92C124.84 747.92 125.201 747.884 125.494 747.812C125.787 747.734 126.041 747.617 126.256 747.461C126.718 747.116 126.949 746.598 126.949 745.908C126.949 745.218 126.708 744.733 126.227 744.453C125.777 744.199 125.117 744.072 124.244 744.072ZM133.424 753.457C132.831 752.891 132.363 752.21 132.018 751.416C131.679 750.622 131.51 749.753 131.51 748.809C131.51 747.858 131.669 746.96 131.988 746.113C132.307 745.267 132.763 744.521 133.355 743.877C133.948 743.232 134.664 742.721 135.504 742.344C136.344 741.96 137.285 741.768 138.326 741.768C140.123 741.768 141.637 742.334 142.867 743.467C144.182 744.678 144.84 746.312 144.84 748.369C144.84 750.361 144.163 752.018 142.809 753.34C141.975 754.154 140.982 754.714 139.83 755.02C139.264 755.169 138.6 755.244 137.838 755.244C137.083 755.244 136.305 755.088 135.504 754.775C134.71 754.463 134.016 754.023 133.424 753.457ZM134.225 748.672C134.225 749.277 134.326 749.834 134.527 750.342C134.729 750.85 135.009 751.286 135.367 751.65C136.129 752.419 137.109 752.803 138.307 752.803C139.446 752.803 140.361 752.435 141.051 751.699C141.754 750.938 142.105 749.899 142.105 748.584C142.105 747.347 141.77 746.315 141.1 745.488C140.377 744.603 139.387 744.16 138.131 744.16C136.913 744.16 135.947 744.609 135.23 745.508C134.56 746.348 134.225 747.402 134.225 748.672ZM149.996 755.059C149.684 755.02 149.081 755 148.189 755H147.408V741.973C147.825 741.999 148.284 742.012 148.785 742.012C149.286 742.012 149.641 741.986 149.85 741.934L153.131 747.51L156.285 741.934C156.493 741.986 156.891 742.012 157.477 742.012C158.062 742.012 158.564 741.999 158.98 741.973V755H158.199C157.307 755 156.705 755.02 156.393 755.059V746.309L153.199 752.021L149.996 746.768V755.059ZM162.701 741.973C163.352 741.999 163.746 742.012 163.883 742.012H164.586C164.931 742.012 165.208 741.986 165.416 741.934L165.406 755H162.701V741.973Z" fill="white"/>
<path d="M92.75 791.391C91.0625 791.391 89.474 791.255 87.9844 790.984V770.078C89.3594 769.911 90.9531 769.828 92.7656 769.828C94.5885 769.828 96.2344 770.078 97.7031 770.578C99.1823 771.068 100.417 771.771 101.406 772.688C103.406 774.521 104.406 777.089 104.406 780.391C104.406 784.089 103.292 786.896 101.062 788.812C99.0625 790.531 96.2917 791.391 92.75 791.391ZM92.0469 787.578C92.724 787.703 93.401 787.766 94.0781 787.766C94.7552 787.766 95.4844 787.635 96.2656 787.375C97.0469 787.104 97.724 786.688 98.2969 786.125C99.526 784.938 100.141 783.208 100.141 780.938C100.141 777.208 98.7812 774.917 96.0625 774.062C95.1667 773.781 94.1302 773.641 92.9531 773.641H92.5312C92.375 773.641 92.2135 773.646 92.0469 773.656V787.578ZM126.125 778.469C125.927 778.823 125.828 779.672 125.828 781.016V785.859C125.828 787.328 125.068 788.604 123.547 789.688C121.974 790.823 120.047 791.391 117.766 791.391C114.599 791.391 112.073 790.396 110.188 788.406C108.365 786.51 107.453 784.094 107.453 781.156C107.453 778.031 108.38 775.427 110.234 773.344C112.307 771 115.161 769.828 118.797 769.828C121.224 769.828 123.146 770.297 124.562 771.234L124.312 775.844L124.188 775.875C123.823 775.24 123.104 774.719 122.031 774.312C121.01 773.927 119.938 773.734 118.812 773.734C117.698 773.734 116.719 773.911 115.875 774.266C115.042 774.62 114.333 775.125 113.75 775.781C112.521 777.125 111.906 778.901 111.906 781.109C111.906 783.036 112.448 784.583 113.531 785.75C114.615 786.906 116.01 787.484 117.719 787.484C119.604 787.484 120.875 786.995 121.531 786.016C121.74 785.703 121.844 785.349 121.844 784.953V782.359H119.828C118.745 782.359 118.156 782.453 118.062 782.641L118.016 782.625L117.875 778.547C118.167 778.63 119.349 778.672 121.422 778.672H123.266C124.411 778.672 125.349 778.594 126.078 778.438L126.125 778.469ZM142.859 771.375L142.562 775.969L142.453 776C141.682 774.844 140.37 774.094 138.516 773.75C137.932 773.635 137.37 773.578 136.828 773.578C136.297 773.578 135.839 773.625 135.453 773.719C135.078 773.812 134.755 773.948 134.484 774.125C133.911 774.5 133.625 774.99 133.625 775.594C133.625 776.385 133.875 776.979 134.375 777.375C135 777.854 136.036 778.193 137.484 778.391C138.932 778.578 140.094 778.839 140.969 779.172C141.844 779.505 142.562 779.927 143.125 780.438C144.188 781.396 144.719 782.75 144.719 784.5C144.719 786.792 143.854 788.557 142.125 789.797C140.646 790.859 138.781 791.391 136.531 791.391C134.719 791.391 132.927 791.047 131.156 790.359C130.573 790.13 130.062 789.865 129.625 789.562L129.797 784.344L129.859 784.297C131.151 786.526 133.271 787.641 136.219 787.641C138.312 787.641 139.698 787.135 140.375 786.125C140.604 785.781 140.719 785.401 140.719 784.984C140.719 784.557 140.651 784.208 140.516 783.938C140.38 783.656 140.156 783.417 139.844 783.219C139.24 782.823 138.224 782.557 136.797 782.422C135.37 782.286 134.203 782.031 133.297 781.656C132.391 781.281 131.667 780.818 131.125 780.266C130.146 779.266 129.656 777.87 129.656 776.078C129.656 774.224 130.307 772.724 131.609 771.578C132.932 770.411 134.714 769.828 136.953 769.828C139.203 769.828 141.172 770.344 142.859 771.375ZM156.406 791.062C156.094 791.021 155.562 791 154.812 791H153C152.646 791 152.354 791.01 152.125 791.031L152.109 791C152.151 790.927 152.172 790.844 152.172 790.75C152.172 790.656 152.161 790.557 152.141 790.453C152.13 790.349 152.089 790.161 152.016 789.891C151.953 789.62 151.854 789.229 151.719 788.719L146.406 770.156C147.073 770.198 147.88 770.219 148.828 770.219C149.776 770.219 150.391 770.177 150.672 770.094L154.359 784.234L157.953 770.156C158.109 770.167 158.25 770.177 158.375 770.188H158.719C159.062 770.208 159.495 770.219 160.016 770.219C160.536 770.219 161.073 770.177 161.625 770.094L165.281 784.234L168.422 770.156C169.047 770.198 169.865 770.219 170.875 770.219C171.885 770.219 172.5 770.177 172.719 770.094L168.219 786.578C167.646 788.474 167.344 789.599 167.312 789.953C167.281 790.307 167.266 790.552 167.266 790.688C167.266 790.823 167.286 790.932 167.328 791.016L167.297 791.062C166.964 791.021 166.438 791 165.719 791C165.094 791 164.526 791 164.016 791C163.505 791 163.135 791.01 162.906 791.031L162.891 791C162.932 790.927 162.953 790.844 162.953 790.75C162.953 790.656 162.948 790.562 162.938 790.469C162.927 790.375 162.896 790.198 162.844 789.938C162.802 789.667 162.729 789.271 162.625 788.75L162.203 786.625L159.641 776.891L157.203 786.578C156.703 788.568 156.443 789.714 156.422 790.016C156.38 790.589 156.385 790.922 156.438 791.016L156.406 791.062Z" fill="#5F00A9"/>
</svg>
