<svg width="272" height="839" viewBox="0 0 272 839" fill="none" xmlns="http://www.w3.org/2000/svg">
<rect width="272" height="839" fill="#F6CAD6"/>
<rect x="70" y="733" width="121" height="29" fill="#F19C9A"/>
<path d="M105.584 755C104.627 755 103.992 755.02 103.68 755.059V741.953C103.836 741.992 104.158 742.012 104.646 742.012C105.141 742.012 105.714 741.999 106.365 741.973V752.656H108.387C108.973 752.656 109.441 752.637 109.793 752.598C109.747 754.121 109.725 754.912 109.725 754.971V755.068C109.087 755.023 108.016 755 106.512 755H105.584ZM119.441 741.963C119.845 741.995 120.18 742.012 120.447 742.012H121.258C121.531 742.012 121.818 741.986 122.117 741.934V750.01C122.117 751.611 121.632 752.897 120.662 753.867C119.744 754.785 118.592 755.244 117.205 755.244C115.688 755.244 114.461 754.85 113.523 754.062C112.475 753.177 111.951 751.901 111.951 750.234V741.963C112.492 741.995 112.999 742.012 113.475 742.012C113.956 742.012 114.354 741.986 114.666 741.934V750.361C114.666 751.182 114.917 751.82 115.418 752.275C115.887 752.692 116.473 752.9 117.176 752.9C118.217 752.9 118.911 752.367 119.256 751.299C119.38 750.915 119.441 750.439 119.441 749.873V741.963ZM132.244 749.385C131.932 749.352 131.528 749.336 131.033 749.336H128.074V755H125.398V741.943C125.574 741.956 125.776 741.966 126.004 741.973L126.727 741.992C127.221 742.005 127.736 742.012 128.27 742.012C129.871 742.012 131.401 741.986 132.859 741.934C132.788 742.507 132.752 743.271 132.752 744.229C132.752 744.333 132.758 744.411 132.771 744.463L132.752 744.492C132.407 744.395 131.925 744.346 131.307 744.346H128.074V747.031H130.926C131.642 747.031 132.072 747.012 132.215 746.973L132.244 749.385ZM142.225 749.385C141.912 749.352 141.508 749.336 141.014 749.336H138.055V755H135.379V741.943C135.555 741.956 135.757 741.966 135.984 741.973L136.707 741.992C137.202 742.005 137.716 742.012 138.25 742.012C139.852 742.012 141.382 741.986 142.84 741.934C142.768 742.507 142.732 743.271 142.732 744.229C142.732 744.333 142.739 744.411 142.752 744.463L142.732 744.492C142.387 744.395 141.906 744.346 141.287 744.346H138.055V747.031H140.906C141.622 747.031 142.052 747.012 142.195 746.973L142.225 749.385ZM148.084 755C148.169 754.746 148.211 754.154 148.211 753.223V750.508C147.085 748.027 146.365 746.481 146.053 745.869C145.74 745.251 145.477 744.762 145.262 744.404C144.585 743.258 144.174 742.601 144.031 742.432C143.895 742.262 143.755 742.122 143.611 742.012H146.98C147.052 742.142 147.15 742.334 147.273 742.588L149.637 747.578C149.747 747.305 149.878 746.999 150.027 746.66C151.447 743.607 152.166 742.057 152.186 742.012H155.408C155.076 742.279 154.669 742.839 154.188 743.691C154.038 743.945 153.888 744.235 153.738 744.561L151.531 749.16C151.284 749.714 151.072 750.212 150.896 750.654V753.457C150.896 754.108 150.936 754.622 151.014 755H148.084Z" fill="white"/>
<path d="M92.75 791.391C91.0625 791.391 89.474 791.255 87.9844 790.984V770.078C89.3594 769.911 90.9531 769.828 92.7656 769.828C94.5885 769.828 96.2344 770.078 97.7031 770.578C99.1823 771.068 100.417 771.771 101.406 772.688C103.406 774.521 104.406 777.089 104.406 780.391C104.406 784.089 103.292 786.896 101.062 788.812C99.0625 790.531 96.2917 791.391 92.75 791.391ZM92.0469 787.578C92.724 787.703 93.401 787.766 94.0781 787.766C94.7552 787.766 95.4844 787.635 96.2656 787.375C97.0469 787.104 97.724 786.688 98.2969 786.125C99.526 784.938 100.141 783.208 100.141 780.938C100.141 777.208 98.7812 774.917 96.0625 774.062C95.1667 773.781 94.1302 773.641 92.9531 773.641H92.5312C92.375 773.641 92.2135 773.646 92.0469 773.656V787.578ZM126.125 778.469C125.927 778.823 125.828 779.672 125.828 781.016V785.859C125.828 787.328 125.068 788.604 123.547 789.688C121.974 790.823 120.047 791.391 117.766 791.391C114.599 791.391 112.073 790.396 110.188 788.406C108.365 786.51 107.453 784.094 107.453 781.156C107.453 778.031 108.38 775.427 110.234 773.344C112.307 771 115.161 769.828 118.797 769.828C121.224 769.828 123.146 770.297 124.562 771.234L124.312 775.844L124.188 775.875C123.823 775.24 123.104 774.719 122.031 774.312C121.01 773.927 119.938 773.734 118.812 773.734C117.698 773.734 116.719 773.911 115.875 774.266C115.042 774.62 114.333 775.125 113.75 775.781C112.521 777.125 111.906 778.901 111.906 781.109C111.906 783.036 112.448 784.583 113.531 785.75C114.615 786.906 116.01 787.484 117.719 787.484C119.604 787.484 120.875 786.995 121.531 786.016C121.74 785.703 121.844 785.349 121.844 784.953V782.359H119.828C118.745 782.359 118.156 782.453 118.062 782.641L118.016 782.625L117.875 778.547C118.167 778.63 119.349 778.672 121.422 778.672H123.266C124.411 778.672 125.349 778.594 126.078 778.438L126.125 778.469ZM142.859 771.375L142.562 775.969L142.453 776C141.682 774.844 140.37 774.094 138.516 773.75C137.932 773.635 137.37 773.578 136.828 773.578C136.297 773.578 135.839 773.625 135.453 773.719C135.078 773.812 134.755 773.948 134.484 774.125C133.911 774.5 133.625 774.99 133.625 775.594C133.625 776.385 133.875 776.979 134.375 777.375C135 777.854 136.036 778.193 137.484 778.391C138.932 778.578 140.094 778.839 140.969 779.172C141.844 779.505 142.562 779.927 143.125 780.438C144.188 781.396 144.719 782.75 144.719 784.5C144.719 786.792 143.854 788.557 142.125 789.797C140.646 790.859 138.781 791.391 136.531 791.391C134.719 791.391 132.927 791.047 131.156 790.359C130.573 790.13 130.062 789.865 129.625 789.562L129.797 784.344L129.859 784.297C131.151 786.526 133.271 787.641 136.219 787.641C138.312 787.641 139.698 787.135 140.375 786.125C140.604 785.781 140.719 785.401 140.719 784.984C140.719 784.557 140.651 784.208 140.516 783.938C140.38 783.656 140.156 783.417 139.844 783.219C139.24 782.823 138.224 782.557 136.797 782.422C135.37 782.286 134.203 782.031 133.297 781.656C132.391 781.281 131.667 780.818 131.125 780.266C130.146 779.266 129.656 777.87 129.656 776.078C129.656 774.224 130.307 772.724 131.609 771.578C132.932 770.411 134.714 769.828 136.953 769.828C139.203 769.828 141.172 770.344 142.859 771.375ZM156.406 791.062C156.094 791.021 155.562 791 154.812 791H153C152.646 791 152.354 791.01 152.125 791.031L152.109 791C152.151 790.927 152.172 790.844 152.172 790.75C152.172 790.656 152.161 790.557 152.141 790.453C152.13 790.349 152.089 790.161 152.016 789.891C151.953 789.62 151.854 789.229 151.719 788.719L146.406 770.156C147.073 770.198 147.88 770.219 148.828 770.219C149.776 770.219 150.391 770.177 150.672 770.094L154.359 784.234L157.953 770.156C158.109 770.167 158.25 770.177 158.375 770.188H158.719C159.062 770.208 159.495 770.219 160.016 770.219C160.536 770.219 161.073 770.177 161.625 770.094L165.281 784.234L168.422 770.156C169.047 770.198 169.865 770.219 170.875 770.219C171.885 770.219 172.5 770.177 172.719 770.094L168.219 786.578C167.646 788.474 167.344 789.599 167.312 789.953C167.281 790.307 167.266 790.552 167.266 790.688C167.266 790.823 167.286 790.932 167.328 791.016L167.297 791.062C166.964 791.021 166.438 791 165.719 791C165.094 791 164.526 791 164.016 791C163.505 791 163.135 791.01 162.906 791.031L162.891 791C162.932 790.927 162.953 790.844 162.953 790.75C162.953 790.656 162.948 790.562 162.938 790.469C162.927 790.375 162.896 790.198 162.844 789.938C162.802 789.667 162.729 789.271 162.625 788.75L162.203 786.625L159.641 776.891L157.203 786.578C156.703 788.568 156.443 789.714 156.422 790.016C156.38 790.589 156.385 790.922 156.438 791.016L156.406 791.062Z" fill="#F19C9A"/>
</svg>
